HIERARCHY
ROOT Hips
{
	OFFSET 0.000000 0.000000 0.000000
	CHANNELS 6 Xposition Yposition Zposition Xrotation Yrotation Zrotation
	JOINT Thigh.L
	{
		OFFSET 0.053547 0.029862 -0.090270
		CHANNELS 3 Xrotation Yrotation Zrotation
		JOINT Shin.L
		{
			OFFSET 0.052281 0.015662 -0.400591
			CHANNELS 3 Xrotation Yrotation Zrotation
			JOINT Foot.L
			{
				OFFSET -0.040988 0.031685 -0.419947
				CHANNELS 3 Xrotation Yrotation Zrotation
				JOINT Toe.L
				{
					OFFSET 0.044187 -0.116689 -0.061872
					CHANNELS 3 Xrotation Yrotation Zrotation
					End Site
					{
						OFFSET 0.000000 0.050000 0.000000
					}
				}
			}
		}
	}
	JOINT Thigh.R
	{
		OFFSET -0.058781 0.027268 -0.100410
		CHANNELS 3 Xrotation Yrotation Zrotation
		JOINT Shin.R
		{
			OFFSET -0.041897 0.020952 -0.384746
			CHANNELS 3 Xrotation Yrotation Zrotation
			JOINT Foot.R
			{
				OFFSET 0.015470 0.020418 -0.428490
				CHANNELS 3 Xrotation Yrotation Zrotation
				JOINT Toe.R
				{
					OFFSET -0.036733 -0.117491 -0.061980
					CHANNELS 3 Xrotation Yrotation Zrotation
					End Site
					{
						OFFSET 0.000000 0.050000 0.000000
					}
				}
			}
		}
	}
	JOINT Spine
	{
		OFFSET -0.001989 0.019327 0.106807
		CHANNELS 3 Xrotation Yrotation Zrotation
		JOINT Spine.2
		{
			OFFSET 0.006566 0.002641 0.129990
			CHANNELS 3 Xrotation Yrotation Zrotation
			JOINT Chest
			{
				OFFSET -0.010253 -0.023810 0.048201
				CHANNELS 3 Xrotation Yrotation Zrotation
				JOINT Neck
				{
					OFFSET -0.009367 0.029528 0.161676
					CHANNELS 3 Xrotation Yrotation Zrotation
					JOINT Head
					{
						OFFSET 0.022077 -0.022581 0.166060
						CHANNELS 3 Xrotation Yrotation Zrotation
						End Site
						{
							OFFSET 0.000000 0.050000 0.000000
						}
					}
				}
				JOINT Clavicle.L
				{
					OFFSET 0.042862 0.008531 0.082558
					CHANNELS 3 Xrotation Yrotation Zrotation
					JOINT UpperArm.L
					{
						OFFSET 0.103844 0.014641 0.059772
						CHANNELS 3 Xrotation Yrotation Zrotation
						JOINT ForeArm.L
						{
							OFFSET 0.257022 0.035001 -0.073727
							CHANNELS 3 Xrotation Yrotation Zrotation
							JOINT Hand.L
							{
								OFFSET 0.254631 0.006198 0.021010
								CHANNELS 3 Xrotation Yrotation Zrotation
								JOINT Thumb1.L
								{
									OFFSET 0.154558 0.002910 0.009865
									CHANNELS 3 Xrotation Yrotation Zrotation
									JOINT Thumb2.L
									{
										OFFSET 0.029890 0.000727 0.002466
										CHANNELS 3 Xrotation Yrotation Zrotation
										End Site
										{
											OFFSET 0.024908 0.000606 0.002055
										}
									}
								}
								JOINT Index1.L
								{
									OFFSET 0.137558 0.002910 0.009865
									CHANNELS 3 Xrotation Yrotation Zrotation
									JOINT Index2.L
									{
										OFFSET 0.029890 0.000727 0.002466
										CHANNELS 3 Xrotation Yrotation Zrotation
										JOINT Index3.L
										{
											OFFSET 0.021919 0.000533 0.001809
											CHANNELS 3 Xrotation Yrotation Zrotation
											End Site
											{
												OFFSET 0.017934 0.000436 0.001480
											}
										}
									}
								}
								JOINT Middle1.L
								{
									OFFSET 0.119558 0.002910 0.009865
									CHANNELS 3 Xrotation Yrotation Zrotation
									JOINT Middle2.L
									{
										OFFSET 0.030886 0.000752 0.002548
										CHANNELS 3 Xrotation Yrotation Zrotation
										JOINT Middle3.L
										{
											OFFSET 0.021919 0.000533 0.001809
											CHANNELS 3 Xrotation Yrotation Zrotation
											End Site
											{
												OFFSET 0.017934 0.000436 0.001480
											}
										}
									}
								}
								JOINT Ring1.L
								{
									OFFSET 0.101558 0.002910 0.009865
									CHANNELS 3 Xrotation Yrotation Zrotation
									JOINT Ring2.L
									{
										OFFSET 0.028893 0.000703 0.002384
										CHANNELS 3 Xrotation Yrotation Zrotation
										JOINT Ring3.L
										{
											OFFSET 0.019926 0.000485 0.001644
											CHANNELS 3 Xrotation Yrotation Zrotation
											End Site
											{
												OFFSET 0.016937 0.000412 0.001398
											}
										}
									}
								}
								JOINT Pinky1.L
								{
									OFFSET 0.085558 0.002910 0.009865
									CHANNELS 3 Xrotation Yrotation Zrotation
									JOINT Pinky2.L
									{
										OFFSET 0.023912 0.000582 0.001973
										CHANNELS 3 Xrotation Yrotation Zrotation
										JOINT Pinky3.L
										{
											OFFSET 0.016937 0.000412 0.001398
											CHANNELS 3 Xrotation Yrotation Zrotation
											End Site
											{
												OFFSET 0.013948 0.000339 0.001151
											}
										}
									}
								}
							}
						}
					}
				}
				JOINT Clavicle.R
				{
					OFFSET -0.041038 0.014616 0.082020
					CHANNELS 3 Xrotation Yrotation Zrotation
					JOINT UpperArm.R
					{
						OFFSET -0.089548 0.009796 0.055550
						CHANNELS 3 Xrotation Yrotation Zrotation
						JOINT ForeArm.R
						{
							OFFSET -0.272404 0.022336 -0.041419
							CHANNELS 3 Xrotation Yrotation Zrotation
							JOINT Hand.R
							{
								OFFSET -0.251711 0.018472 -0.003412
								CHANNELS 3 Xrotation Yrotation Zrotation
								JOINT Thumb1.R
								{
									OFFSET -0.154667 0.008782 -0.001622
									CHANNELS 3 Xrotation Yrotation Zrotation
									JOINT Thumb2.R
									{
										OFFSET -0.029917 0.002196 -0.000405
										CHANNELS 3 Xrotation Yrotation Zrotation
										End Site
										{
											OFFSET -0.024931 0.001830 -0.000338
										}
									}
								}
								JOINT Index1.R
								{
									OFFSET -0.137667 0.008782 -0.001622
									CHANNELS 3 Xrotation Yrotation Zrotation
									JOINT Index2.R
									{
										OFFSET -0.029917 0.002196 -0.000405
										CHANNELS 3 Xrotation Yrotation Zrotation
										JOINT Index3.R
										{
											OFFSET -0.021939 0.001610 -0.000297
											CHANNELS 3 Xrotation Yrotation Zrotation
											End Site
											{
												OFFSET -0.017950 0.001317 -0.000243
											}
										}
									}
								}
								JOINT Middle1.R
								{
									OFFSET -0.119667 0.008782 -0.001622
									CHANNELS 3 Xrotation Yrotation Zrotation
									JOINT Middle2.R
									{
										OFFSET -0.030914 0.002269 -0.000419
										CHANNELS 3 Xrotation Yrotation Zrotation
										JOINT Middle3.R
										{
											OFFSET -0.021939 0.001610 -0.000297
											CHANNELS 3 Xrotation Yrotation Zrotation
											End Site
											{
												OFFSET -0.017950 0.001317 -0.000243
											}
										}
									}
								}
								JOINT Ring1.R
								{
									OFFSET -0.101667 0.008782 -0.001622
									CHANNELS 3 Xrotation Yrotation Zrotation
									JOINT Ring2.R
									{
										OFFSET -0.028920 0.002122 -0.000392
										CHANNELS 3 Xrotation Yrotation Zrotation
										JOINT Ring3.R
										{
											OFFSET -0.019945 0.001464 -0.000270
											CHANNELS 3 Xrotation Yrotation Zrotation
											End Site
											{
												OFFSET -0.016953 0.001244 -0.000230
											}
										}
									}
								}
								JOINT Pinky1.R
								{
									OFFSET -0.085667 0.008782 -0.001622
									CHANNELS 3 Xrotation Yrotation Zrotation
									JOINT Pinky2.R
									{
										OFFSET -0.023933 0.001756 -0.000324
										CHANNELS 3 Xrotation Yrotation Zrotation
										JOINT Pinky3.R
										{
											OFFSET -0.016953 0.001244 -0.000230
											CHANNELS 3 Xrotation Yrotation Zrotation
											End Site
											{
												OFFSET -0.013961 0.001025 -0.000189
											}
										}
									}
								}
							}
						}
					}
				}
			}
		}
	}
}
MOTION
Frames: 5
Frame Time: 0.04166667
0.003020 -0.068274 1.588920 -10.727770 -0.034869 0.714633 11.944202 0.536505 4.388771 -0.518856 -0.936607 -0.491896 2.428670 4.138226 7.647687 3.021953 -1.187861 1.510315 7.790356 -1.055997 -3.659951 6.694984 0.897244 -2.325644 7.352454 -5.702022 -1.092525 0.537824 -3.021750 -1.988476 6.051083 -0.198365 1.996813 7.849294 -2.867538 -2.165044 -4.431778 1.112205 0.490923 10.362430 2.657177 2.864607 6.217031 -1.892555 6.814554 5.562896 19.883863 1.646743 16.982203 50.673138 -19.135217 8.663435 0.823236 -22.454137 -3.259454 3.770832 -11.072300 0.000000 0.000000 0.000000 0.000000 0.000000 0.000000 0.000000 0.000000 0.000000 0.000000 0.000000 0.000000 0.000000 0.000000 0.000000 0.000000 0.000000 0.000000 0.000000 0.000000 0.000000 0.000000 0.000000 0.000000 0.000000 0.000000 0.000000 0.000000 0.000000 0.000000 0.000000 0.000000 0.000000 0.000000 0.000000 0.000000 0.000000 0.000000 0.000000 0.000000 0.000000 0.000000 3.338522 -12.566298 3.828958 28.694640 -54.778612 24.983083 4.176711 -0.247307 27.034542 -4.657614 -6.214335 6.842830 0.000000 0.000000 0.000000 0.000000 0.000000 0.000000 0.000000 0.000000 0.000000 0.000000 0.000000 0.000000 0.000000 0.000000 0.000000 0.000000 0.000000 0.000000 0.000000 0.000000 0.000000 0.000000 0.000000 0.000000 0.000000 0.000000 0.000000 0.000000 0.000000 0.000000 0.000000 0.000000 0.000000 0.000000 0.000000 0.000000 0.000000 0.000000 0.000000 0.000000 0.000000 0.000000
0.004399 -0.067786 1.589957 -10.982688 -0.141437 0.653760 12.042722 0.611143 4.357820 0.051745 -0.997916 -0.317386 2.579233 4.139897 7.502389 2.989377 -1.127519 1.531970 7.909654 -0.978930 -3.659833 7.201648 0.941728 -2.355516 7.540653 -5.704655 -0.995363 0.522046 -2.972304 -2.001858 6.244270 -0.175712 2.031798 7.925329 -2.847362 -2.215060 -4.432868 1.040699 0.479729 10.331639 2.795627 2.776660 6.194944 -1.919215 6.986865 5.631809 19.997639 1.516799 16.882495 50.653947 -18.902444 8.461043 0.868494 -22.261611 -3.098344 3.782194 -11.135448 0.000000 0.000000 0.000000 0.000000 0.000000 0.000000 0.000000 0.000000 0.000000 0.000000 0.000000 0.000000 0.000000 0.000000 0.000000 0.000000 0.000000 0.000000 0.000000 0.000000 0.000000 0.000000 0.000000 0.000000 0.000000 0.000000 0.000000 0.000000 0.000000 0.000000 0.000000 0.000000 0.000000 0.000000 0.000000 0.000000 0.000000 0.000000 0.000000 0.000000 0.000000 0.000000 3.325443 -12.578085 3.952568 28.689542 -54.881626 24.802105 4.228769 -0.215085 27.014499 -4.256256 -6.222867 7.052357 0.000000 0.000000 0.000000 0.000000 0.000000 0.000000 0.000000 0.000000 0.000000 0.000000 0.000000 0.000000 0.000000 0.000000 0.000000 0.000000 0.000000 0.000000 0.000000 0.000000 0.000000 0.000000 0.000000 0.000000 0.000000 0.000000 0.000000 0.000000 0.000000 0.000000 0.000000 0.000000 0.000000 0.000000 0.000000 0.000000 0.000000 0.000000 0.000000 0.000000 0.000000 0.000000
0.005135 -0.067019 1.591572 -11.493980 -0.209282 0.022121 11.757318 0.615303 4.243264 2.111429 -0.833068 -0.347834 3.089277 3.573004 7.394267 2.833373 -1.182498 1.513268 7.100889 -0.657672 -3.399597 10.003133 0.961905 -2.037893 8.022012 -5.513060 -0.397201 0.523424 -3.155234 -1.965133 6.796624 -0.164074 2.048948 7.924408 -2.661125 -2.121694 -4.508301 1.078385 0.511191 10.622056 3.117941 2.717220 5.857870 -1.873768 7.436417 6.079172 20.182865 1.394733 16.802572 50.404689 -18.668065 8.504197 0.839391 -22.082747 -3.345067 3.726670 -11.109109 0.000000 0.000000 0.000000 0.000000 0.000000 0.000000 0.000000 0.000000 0.000000 0.000000 0.000000 0.000000 0.000000 0.000000 0.000000 0.000000 0.000000 0.000000 0.000000 0.000000 0.000000 0.000000 0.000000 0.000000 0.000000 0.000000 0.000000 0.000000 0.000000 0.000000 0.000000 0.000000 0.000000 0.000000 0.000000 0.000000 0.000000 0.000000 0.000000 0.000000 0.000000 0.000000 3.236549 -12.342877 4.067669 28.959268 -55.442643 24.964598 4.250564 -0.115854 26.615900 -4.440290 -6.025779 6.997918 0.000000 0.000000 0.000000 0.000000 0.000000 0.000000 0.000000 0.000000 0.000000 0.000000 0.000000 0.000000 0.000000 0.000000 0.000000 0.000000 0.000000 0.000000 0.000000 0.000000 0.000000 0.000000 0.000000 0.000000 0.000000 0.000000 0.000000 0.000000 0.000000 0.000000 0.000000 0.000000 0.000000 0.000000 0.000000 0.000000 0.000000 0.000000 0.000000 0.000000 0.000000 0.000000
0.005657 -0.066025 1.593120 -11.669031 -0.262293 -0.155601 11.463065 0.501288 4.100423 3.185481 -0.598378 -0.242344 3.807562 3.611636 7.221683 2.735875 -1.127175 1.484776 6.897246 -0.469832 -3.328147 10.905799 0.903493 -1.915602 8.860587 -5.606084 -0.072443 0.470921 -3.240018 -1.954196 6.852446 -0.152670 2.074451 7.832441 -2.573840 -2.045373 -4.309196 1.098722 0.474612 10.469797 3.223124 2.727009 5.801263 -1.773730 7.682377 6.081837 20.249580 1.364660 16.787299 50.357143 -18.381656 8.868145 0.720584 -22.096595 -3.407961 3.814968 -11.292129 0.000000 0.000000 0.000000 0.000000 0.000000 0.000000 0.000000 0.000000 0.000000 0.000000 0.000000 0.000000 0.000000 0.000000 0.000000 0.000000 0.000000 0.000000 0.000000 0.000000 0.000000 0.000000 0.000000 0.000000 0.000000 0.000000 0.000000 0.000000 0.000000 0.000000 0.000000 0.000000 0.000000 0.000000 0.000000 0.000000 0.000000 0.000000 0.000000 0.000000 0.000000 0.000000 3.159234 -12.458567 3.987585 29.183443 -55.485557 24.942381 4.370346 0.001698 26.561318 -4.505044 -5.901958 6.936668 0.000000 0.000000 0.000000 0.000000 0.000000 0.000000 0.000000 0.000000 0.000000 0.000000 0.000000 0.000000 0.000000 0.000000 0.000000 0.000000 0.000000 0.000000 0.000000 0.000000 0.000000 0.000000 0.000000 0.000000 0.000000 0.000000 0.000000 0.000000 0.000000 0.000000 0.000000 0.000000 0.000000 0.000000 0.000000 0.000000 0.000000 0.000000 0.000000 0.000000 0.000000 0.000000
0.005588 -0.065251 1.594708 -11.740571 -0.249785 -0.350552 11.255897 0.358077 4.094887 3.739786 -0.393858 -0.132668 4.667918 3.895754 7.092463 2.664934 -1.050402 1.465867 6.702164 -0.328837 -3.335745 11.454406 0.830161 -1.862771 9.889748 -5.893943 0.198704 0.438480 -3.266442 -1.945568 6.890125 -0.165389 2.028443 7.783526 -2.491311 -1.987144 -4.169850 1.079175 0.429463 10.203357 3.344410 2.718462 5.564162 -1.768416 7.969488 6.076930 20.315666 1.375949 16.805382 50.278956 -18.135354 9.104366 0.750192 -22.198218 -3.339779 3.660466 -11.621272 0.000000 0.000000 0.000000 0.000000 0.000000 0.000000 0.000000 0.000000 0.000000 0.000000 0.000000 0.000000 0.000000 0.000000 0.000000 0.000000 0.000000 0.000000 0.000000 0.000000 0.000000 0.000000 0.000000 0.000000 0.000000 0.000000 0.000000 0.000000 0.000000 0.000000 0.000000 0.000000 0.000000 0.000000 0.000000 0.000000 0.000000 0.000000 0.000000 0.000000 0.000000 0.000000 3.165692 -12.552095 3.893446 29.233765 -55.419094 24.865113 4.506615 0.058710 26.662152 -4.428696 -5.768310 6.989960 0.000000 0.000000 0.000000 0.000000 0.000000 0.000000 0.000000 0.000000 0.000000 0.000000 0.000000 0.000000 0.000000 0.000000 0.000000 0.000000 0.000000 0.000000 0.000000 0.000000 0.000000 0.000000 0.000000 0.000000 0.000000 0.000000 0.000000 0.000000 0.000000 0.000000 0.000000 0.000000 0.000000 0.000000 0.000000 0.000000 0.000000 0.000000 0.000000 0.000000 0.000000 0.000000
